<?xml version="1.0" standalone="no"?>
<!DOCTYPE svg PUBLIC "-//W3C//DTD SVG 20010904//EN"
 "http://www.w3.org/TR/2001/REC-SVG-20010904/DTD/svg10.dtd">
<svg version="1.0" xmlns="http://www.w3.org/2000/svg"
 width="1080.000000pt" height="1080.000000pt" viewBox="0 0 1080.000000 1080.000000"
 preserveAspectRatio="xMidYMid meet">
<metadata>
Created by potrace 1.14, written by Peter Selinger 2001-2017
</metadata>
<g transform="translate(0.000000,1080.000000) scale(0.100000,-0.100000)"
fill="#000000" stroke="none">
<path d="M4235 8460 c-33 -4 -97 -11 -143 -14 -45 -3 -92 -8 -105 -10 -12 -3
-47 -7 -77 -10 -54 -5 -150 -18 -280 -37 -61 -9 -225 -39 -315 -58 -22 -5 -67
-14 -100 -21 -58 -11 -253 -61 -325 -82 -19 -5 -50 -12 -68 -15 -18 -3 -35 -9
-38 -14 -3 -5 -15 -9 -28 -9 -12 0 -26 -4 -31 -8 -6 -5 -35 -14 -65 -22 -30
-7 -62 -17 -70 -21 -8 -4 -44 -17 -80 -29 -69 -23 -104 -37 -132 -51 -10 -5
-25 -9 -33 -9 -8 0 -23 -4 -33 -9 -9 -5 -28 -13 -42 -19 -14 -5 -41 -17 -60
-25 -19 -8 -66 -28 -105 -43 -38 -15 -74 -31 -79 -35 -6 -5 -18 -9 -28 -9 -10
0 -18 -4 -18 -10 0 -5 -6 -10 -13 -10 -18 0 -67 -24 -67 -32 0 -5 -9 -8 -19
-8 -11 0 -23 -4 -26 -10 -3 -5 -15 -10 -26 -10 -10 0 -19 -4 -19 -10 0 -5 -9
-10 -19 -10 -11 0 -21 -4 -23 -8 -1 -4 -34 -23 -73 -42 -38 -19 -72 -37 -75
-40 -3 -3 -27 -16 -55 -30 -27 -14 -52 -27 -55 -30 -3 -3 -26 -17 -52 -30 -27
-14 -48 -28 -48 -32 0 -5 -7 -8 -15 -8 -8 0 -15 -4 -15 -10 0 -5 -7 -10 -15
-10 -8 0 -15 -4 -15 -10 0 -5 -6 -10 -13 -10 -7 0 -23 -9 -35 -20 -12 -11 -26
-20 -32 -20 -5 0 -10 -3 -10 -8 0 -4 -13 -13 -28 -20 -16 -6 -38 -21 -50 -32
-12 -11 -24 -20 -26 -20 -6 0 -37 -24 -61 -47 -8 -7 -16 -13 -19 -13 -3 0 -14
-7 -23 -15 -10 -8 -47 -37 -83 -65 -122 -96 -240 -213 -240 -237 0 -18 6 -23
28 -23 15 0 32 4 37 9 10 10 87 52 190 105 33 17 62 33 65 36 3 3 16 10 30 16
209 96 250 114 260 114 6 0 10 5 10 10 0 6 7 10 15 10 8 0 23 4 33 9 35 18
294 118 367 142 22 7 44 17 49 21 6 4 20 8 32 8 13 0 26 5 29 10 3 6 17 10 30
10 13 0 27 5 30 10 3 6 16 10 29 10 12 0 26 4 32 9 5 6 20 12 34 14 14 2 32 6
40 9 32 12 161 49 246 72 49 13 96 25 104 28 8 3 42 11 75 18 33 7 69 16 80
20 11 5 34 11 50 13 17 3 73 14 125 25 282 60 789 124 1210 151 203 14 834 5
995 -13 77 -8 187 -20 245 -26 171 -16 396 -48 570 -79 112 -20 126 -23 150
-31 14 -4 52 -13 85 -20 33 -7 69 -16 80 -20 11 -4 47 -13 80 -20 33 -6 69
-15 80 -19 11 -5 81 -23 155 -41 74 -18 139 -37 144 -41 6 -5 25 -9 43 -9 18
0 33 -4 33 -10 0 -5 11 -10 25 -10 13 0 34 -4 47 -9 13 -5 43 -14 68 -21 25
-7 53 -16 62 -21 10 -5 29 -9 43 -9 14 0 25 -4 25 -10 0 -5 13 -10 28 -10 15
0 32 -4 38 -9 5 -5 56 -23 114 -41 58 -18 107 -36 108 -41 2 -5 12 -9 23 -9
11 0 27 -4 37 -9 9 -5 31 -14 47 -21 17 -7 38 -16 47 -21 10 -5 25 -9 33 -9 8
0 15 -4 15 -10 0 -5 5 -10 10 -10 6 0 30 -9 52 -20 23 -11 48 -20 55 -20 7 0
13 -4 13 -10 0 -5 9 -10 20 -10 11 0 20 -4 20 -10 0 -5 9 -10 20 -10 11 0 20
-3 20 -8 0 -4 14 -13 31 -21 36 -16 143 -80 206 -122 23 -16 46 -29 52 -29 6
0 11 -4 11 -8 0 -4 13 -15 29 -25 146 -86 443 -390 535 -547 11 -19 24 -39 28
-45 30 -37 70 -108 130 -229 127 -252 142 -306 118 -409 -5 -23 -17 -82 -25
-132 -15 -81 -66 -340 -79 -405 -74 -347 -116 -578 -116 -640 0 -29 1 -30 50
-30 33 0 50 -4 50 -12 0 -9 3 -9 8 -3 6 9 26 12 35 5 7 -6 36 -7 32 -1 -2 4 2
8 10 8 8 0 12 -4 9 -9 -6 -10 10 -11 20 -1 10 10 37 13 31 3 -8 -13 109 -8
117 5 5 6 8 5 8 -4 0 -11 3 -11 17 0 10 9 14 9 10 2 -6 -9 25 -12 128 -11 87
1 135 6 135 12 0 7 3 6 8 -1 8 -13 52 -14 52 -1 0 4 5 8 11 8 5 0 7 -4 4 -10
-3 -5 -2 -10 4 -10 5 0 13 5 16 10 5 8 11 8 19 1 9 -7 16 -7 23 0 8 8 17 8 30
0 14 -7 24 -7 33 2 10 9 11 9 6 0 -4 -7 -3 -13 3 -13 5 0 12 6 14 13 4 9 8 8
16 -3 8 -12 11 -12 11 -1 0 11 3 11 17 0 11 -10 14 -10 9 -1 -4 6 -3 12 3 12
5 0 13 -4 16 -10 3 -6 12 -10 18 -10 7 0 6 4 -3 10 -13 8 -13 10 2 10 9 0 20
-4 23 -10 3 -6 12 -10 18 -10 8 0 7 3 -2 9 -8 5 28 9 93 9 58 -1 106 -5 106
-9 0 -5 7 -9 15 -9 8 0 15 5 15 10 0 6 5 10 11 10 5 0 8 -4 5 -9 -3 -5 10 -9
29 -9 19 0 35 5 35 11 0 6 3 8 6 4 8 -8 64 13 64 24 0 5 5 9 11 9 5 0 52 42
103 93 52 50 130 127 175 169 105 100 106 114 9 123 -40 3 -298 7 -573 8 -485
2 -500 3 -503 21 -9 44 9 46 423 46 l392 0 56 60 c32 33 59 60 61 60 2 0 34
28 70 63 36 34 79 74 96 89 21 19 30 37 30 58 l0 30 -519 0 c-470 0 -519 2
-525 16 -16 43 -5 44 430 44 l413 0 82 78 c193 181 309 302 309 321 0 17 -34
87 -50 101 -3 3 -9 12 -15 21 -19 32 -89 134 -95 139 -3 3 -38 48 -78 100 -39
52 -89 115 -111 140 -22 25 -55 63 -73 85 -43 52 -360 367 -424 422 -119 101
-134 113 -140 113 -3 0 -16 11 -29 24 -14 14 -38 33 -55 42 -16 10 -30 22 -30
26 0 4 -4 8 -10 8 -5 0 -19 8 -31 18 -11 9 -33 27 -47 39 -15 13 -33 23 -39
23 -7 0 -13 3 -13 8 0 4 -18 18 -40 32 -22 14 -40 28 -40 32 0 5 -6 8 -13 8
-8 0 -22 9 -32 20 -10 11 -24 20 -32 20 -7 0 -13 4 -13 9 0 5 -8 11 -17 14
-23 7 -72 37 -97 60 -11 9 -23 17 -27 17 -11 0 -113 63 -117 73 -2 4 -12 7
-23 7 -10 0 -19 3 -19 8 0 4 -15 13 -32 21 -18 8 -35 17 -38 21 -3 3 -30 18
-60 33 -30 15 -83 43 -118 62 -35 19 -70 35 -78 35 -8 0 -14 3 -14 8 0 8 -49
32 -67 32 -7 0 -13 5 -13 10 0 6 -4 10 -9 10 -6 0 -58 23 -118 51 -59 27 -117
54 -128 58 -51 21 -81 34 -97 42 -10 5 -25 9 -33 9 -8 0 -15 4 -15 9 0 5 -10
11 -22 14 -26 6 -101 32 -135 47 -13 6 -33 14 -45 19 -13 5 -36 14 -51 20 -15
6 -37 11 -47 11 -11 0 -20 5 -20 10 0 6 -11 10 -24 10 -14 0 -28 5 -31 10 -3
6 -15 10 -26 10 -10 0 -27 4 -37 10 -20 11 -106 39 -212 70 -41 12 -85 26 -98
31 -13 5 -33 9 -45 9 -13 0 -28 5 -35 12 -7 7 -12 9 -12 5 0 -3 -19 0 -41 8
-23 8 -54 15 -70 15 -16 0 -29 5 -29 10 0 6 -9 10 -21 10 -11 0 -65 11 -120
25 -99 25 -358 79 -454 95 -27 4 -61 11 -75 14 -25 6 -196 30 -325 46 -38 5
-110 14 -160 20 -49 6 -126 13 -170 16 -44 3 -118 9 -164 14 -99 11 -1119 11
-1206 0z"/>
<path d="M975 6354 c-143 -145 -270 -274 -283 -287 l-22 -22 207 2 c115 1 550
4 968 6 843 5 821 6 889 -60 46 -45 56 -69 56 -134 0 -58 -17 -103 -55 -143
-53 -55 -77 -59 -360 -62 -609 -8 -1739 -11 -1775 -4 -42 8 -39 12 -54 -65 -3
-11 -21 -101 -41 -200 -20 -99 -38 -191 -40 -205 -2 -14 -4 -25 -5 -25 -1 0
-4 -13 -6 -30 -3 -16 -16 -83 -29 -147 -14 -64 -27 -132 -29 -150 -3 -18 -12
-60 -20 -93 -9 -33 -15 -87 -16 -119 0 -56 5 -70 91 -230 135 -253 253 -421
481 -682 269 -308 733 -655 1153 -862 657 -325 1279 -475 2058 -499 114 -3
207 -10 207 -15 0 -4 65 -8 145 -8 80 0 145 4 145 8 0 5 98 12 218 16 239 7
387 18 682 51 674 75 1403 254 2040 502 484 188 1030 493 1375 768 113 90 339
291 384 341 69 78 49 98 -41 40 -92 -58 -441 -240 -611 -317 -768 -351 -1584
-584 -2462 -704 -66 -9 -165 -23 -220 -30 -423 -59 -1002 -89 -1430 -74 -407
14 -735 50 -1080 120 -123 25 -203 49 -515 151 -574 188 -856 340 -1255 674
-188 157 -360 354 -506 576 -112 172 -107 145 -65 370 20 106 40 209 44 228
l8 35 669 6 c787 7 829 11 1085 106 296 110 478 274 568 514 45 122 57 304 26
422 -39 150 -147 282 -298 366 -97 52 -255 106 -360 120 -51 7 -351 11 -869
10 l-792 -2 -260 -263z"/>
<path d="M4130 5900 c0 -5 -6 -10 -13 -10 -7 0 -83 -69 -170 -152 -86 -84
-168 -164 -182 -177 -14 -13 -25 -33 -25 -46 0 -22 1 -23 197 -30 108 -4 409
-4 670 0 348 6 473 4 473 -4 0 -6 7 -11 16 -11 31 0 47 -28 40 -71 -7 -42 -15
-54 -56 -79 -22 -13 -117 -15 -695 -15 -368 0 -676 -4 -682 -8 -10 -6 -27 -53
-37 -102 -10 -47 -28 -138 -45 -230 -11 -60 -29 -159 -41 -220 -11 -60 -20
-122 -20 -137 0 -29 -1 -29 73 -31 17 0 35 -5 39 -11 5 -8 8 -7 8 2 0 6 8 12
18 12 14 0 14 -2 3 -9 -10 -7 -7 -9 12 -8 14 1 23 5 20 10 -7 12 12 8 26 -5
11 -10 13 -10 7 0 -5 8 0 12 16 12 15 0 19 -3 10 -8 -7 -5 14 -8 47 -8 32 1
57 4 55 8 -2 3 4 5 13 3 10 -2 18 -4 18 -5 0 -1 8 -3 18 -5 9 -2 15 0 13 4 -3
4 23 8 57 9 34 2 64 6 68 10 3 4 11 34 18 67 7 33 19 87 27 121 8 33 14 68 14
76 0 41 15 43 301 41 151 -1 279 -2 286 -2 12 -1 54 -60 88 -123 11 -21 22
-38 26 -38 3 0 14 -18 24 -40 10 -22 22 -40 27 -40 4 0 8 -6 8 -12 1 -7 9 -23
20 -36 14 -17 30 -23 65 -24 25 0 48 -5 51 -10 3 -5 11 -4 19 2 9 8 15 8 20 0
3 -5 11 -10 16 -10 6 0 7 6 3 13 -6 9 -4 9 7 1 8 -5 60 -11 117 -12 82 -2 102
0 96 10 -5 10 -4 11 7 1 14 -14 71 -18 83 -6 3 4 17 8 29 10 16 2 18 0 8 -6
-9 -6 -5 -8 14 -8 19 0 23 2 14 8 -11 7 -11 9 2 9 8 0 21 -6 28 -12 11 -11 12
-10 6 0 -5 10 -1 13 11 12 11 -1 36 -2 57 -1 34 1 37 3 37 32 0 17 -6 36 -12
43 -7 8 -20 24 -28 36 -8 12 -20 28 -25 34 -6 6 -26 31 -45 56 -45 58 -71 89
-92 112 -10 10 -18 21 -18 24 0 4 -8 14 -18 23 -19 16 -46 61 -40 65 18 13 74
34 80 30 4 -3 8 -2 8 3 0 4 13 14 29 21 26 12 49 30 118 94 67 62 112 154 133
269 13 69 -2 183 -30 238 -23 45 -105 131 -126 131 -8 0 -14 5 -14 10 0 6 -7
10 -15 10 -8 0 -15 5 -15 10 0 6 -11 10 -25 10 -14 0 -25 4 -25 9 0 9 -107 42
-155 48 -16 2 -42 8 -57 13 -39 13 -1108 13 -1108 0z"/>
<path d="M5977 5873 c-9 -21 -19 -56 -22 -78 -3 -22 -8 -53 -10 -70 -5 -36
-32 -179 -40 -215 -3 -14 -10 -52 -16 -85 -6 -33 -19 -100 -29 -150 -10 -49
-33 -164 -50 -255 -17 -91 -40 -208 -50 -260 -11 -53 -20 -115 -20 -138 l0
-42 258 0 259 0 11 38 c6 20 27 120 46 222 20 102 43 217 50 255 15 72 66 347
92 490 8 44 22 114 31 155 9 41 17 95 17 120 l1 45 -256 3 -256 2 -16 -37z"/>
<path d="M6761 5872 c-6 -21 -28 -131 -51 -247 -22 -115 -45 -232 -50 -260
-14 -68 -45 -231 -65 -340 -9 -49 -25 -130 -36 -180 -24 -106 -49 -243 -49
-267 0 -16 14 -18 166 -18 93 0 163 4 160 9 -3 5 3 11 13 14 13 3 20 16 23 43
3 22 17 100 32 174 88 439 107 534 108 556 4 45 21 19 70 -107 27 -68 53 -133
58 -144 5 -11 39 -101 75 -200 37 -99 74 -191 82 -204 14 -22 18 -23 121 -19
66 2 107 8 109 15 2 6 14 22 26 35 12 14 63 78 112 143 50 65 126 164 171 220
44 56 111 143 150 194 40 55 70 87 72 78 2 -8 -6 -64 -18 -124 -69 -355 -119
-637 -118 -657 l2 -24 162 -2 c120 0 163 2 171 12 10 12 47 157 57 223 7 42
117 623 160 840 20 99 37 200 38 225 l3 45 -229 2 -229 2 -33 -37 c-58 -64
-243 -320 -237 -326 4 -3 0 -6 -8 -6 -8 0 -22 -13 -31 -28 -9 -15 -38 -55 -65
-89 -26 -34 -77 -100 -112 -148 -35 -47 -66 -84 -68 -82 -2 3 -21 55 -43 118
-22 63 -47 130 -55 149 -8 19 -37 98 -65 175 -28 77 -63 170 -77 206 l-25 67
-234 0 -234 0 -9 -36z"/>
<path d="M3125 4321 c-43 -19 -101 -78 -205 -206 l-64 -80 -11 35 c-14 50 -26
65 -62 84 -18 9 -33 20 -33 24 0 4 18 26 41 49 31 32 40 49 37 70 l-3 28 -250
2 c-247 2 -266 0 -340 -34 -74 -33 -88 -145 -26 -203 47 -44 47 -48 3 -93 -44
-45 -59 -89 -37 -107 7 -6 42 -11 76 -11 35 1 71 0 79 0 8 0 98 2 200 6 102 4
199 6 215 6 17 -1 245 -4 508 -7 352 -3 483 -2 493 7 7 6 24 42 36 80 12 38
26 69 30 69 5 0 21 -21 36 -47 45 -78 82 -110 135 -118 67 -10 107 14 160 95
23 36 47 65 52 65 6 0 20 -31 32 -69 12 -38 28 -73 35 -77 7 -5 271 -9 585 -9
l573 0 5 23 c2 12 6 33 7 47 3 21 9 25 43 28 79 7 126 -7 169 -49 22 -22 49
-42 60 -45 12 -2 111 -3 221 -2 l200 3 7 48 c4 27 9 51 12 55 3 3 33 -16 66
-42 33 -26 75 -52 93 -57 18 -5 284 -9 609 -9 511 0 578 2 592 16 12 11 16 35
16 85 0 38 4 69 9 69 4 0 30 -16 56 -36 142 -109 187 -134 238 -134 40 0 54 5
73 25 13 14 20 25 17 25 -3 0 1 7 8 16 18 22 20 357 1 376 -7 7 -41 12 -87 13
-99 0 -110 -11 -110 -105 0 -39 -3 -70 -7 -70 -4 0 -35 22 -70 49 -157 124
-207 147 -270 122 -52 -20 -63 -51 -68 -210 l-5 -145 -125 148 c-69 81 -132
155 -140 165 -30 33 -65 51 -103 51 -38 0 -107 -25 -107 -39 0 -4 -26 -35 -57
-69 -32 -34 -80 -87 -108 -119 -27 -31 -68 -77 -91 -101 l-40 -44 -38 22 c-47
26 -186 119 -186 124 0 2 30 23 68 47 37 23 91 57 120 76 85 57 67 90 -57 100
-109 9 -148 -1 -227 -58 l-69 -51 -7 43 c-4 23 -11 46 -16 51 -5 5 -51 7 -103
6 l-94 -3 -11 -60 c-7 -33 -12 -52 -13 -43 -2 27 -71 77 -131 95 -42 12 -102
16 -247 17 l-192 1 -56 -55 c-40 -40 -55 -62 -55 -82 0 -15 1 -29 3 -30 1 -1
101 -5 222 -8 l220 -6 -210 -2 c-115 -1 -216 -6 -223 -10 -7 -5 -16 -41 -20
-86 l-7 -77 -135 161 c-152 181 -187 207 -264 196 -59 -9 -99 -42 -206 -171
-134 -162 -151 -179 -162 -163 -4 7 -27 71 -49 141 -50 157 -72 187 -145 194
-67 6 -105 -20 -172 -122 -29 -44 -58 -81 -65 -83 -8 -1 -18 8 -24 20 -23 48
-105 150 -136 168 -64 39 -143 18 -176 -48 -10 -20 -33 -81 -50 -136 -54 -167
-45 -164 -135 -55 -99 120 -203 227 -238 245 -36 19 -75 17 -123 -5z m2785
-282 l0 -70 -35 27 -35 26 30 35 c17 18 30 38 30 43 0 6 2 10 5 10 3 0 5 -32
5 -71z"/>
<path d="M8070 4288 c0 -4 -4 -8 -10 -8 -18 0 -60 -43 -60 -62 0 -17 12 -18
165 -18 103 0 165 -4 165 -10 0 -5 10 -10 23 -10 14 0 30 -12 45 -33 23 -34
29 -67 13 -67 -5 0 -12 -8 -15 -18 -10 -32 -58 -43 -167 -40 l-104 3 -3 54
c-2 29 -9 59 -16 66 -15 16 -118 16 -128 1 -4 -6 -8 -60 -8 -119 l0 -108 208
3 c179 3 212 6 247 22 60 29 103 63 120 96 17 33 20 102 5 130 -12 22 -60 72
-60 63 0 -4 -7 2 -16 13 -8 10 -13 13 -9 6 4 -7 -8 -4 -27 7 -18 10 -55 22
-83 26 -69 11 -285 13 -285 3z"/>
<path d="M8150 4111 c0 -68 4 -71 85 -71 50 0 74 6 131 32 27 12 25 52 -2 72
-20 15 -91 26 -166 26 l-48 0 0 -59z"/>
</g>
</svg>
